<?xml version="1.0" standalone="no"?>
<!DOCTYPE svg PUBLIC "-//W3C//DTD SVG 20010904//EN"
 "http://www.w3.org/TR/2001/REC-SVG-20010904/DTD/svg10.dtd">
<svg version="1.0" xmlns="http://www.w3.org/2000/svg"
 width="820.000000pt" height="820.000000pt" viewBox="0 0 820.000000 820.000000"
 preserveAspectRatio="xMidYMid meet">

<g transform="translate(0.000000,820.000000) scale(0.100000,-0.100000)"
fill="#000000" stroke="none">
<path d="M3820 8184 c-471 -42 -846 -129 -1237 -285 -1209 -482 -2132 -1536
-2447 -2794 -90 -359 -120 -609 -120 -1005 0 -489 56 -843 204 -1290 336
-1019 1057 -1859 2015 -2351 474 -244 955 -384 1495 -435 229 -22 681 -14 900
15 706 96 1354 358 1913 774 1420 1056 2002 2903 1442 4582 -287 862 -854
1602 -1617 2113 -525 352 -1134 576 -1788 658 -120 15 -653 27 -760 18z m-280
-2353 l0 -259 -737 -397 c-544 -293 -741 -394 -753 -388 -64 31 -440 239 -440
243 0 6 1911 1059 1923 1060 4 0 7 -117 7 -259z m2103 -271 c525 -289 953
-528 951 -531 -2 -4 -105 -62 -229 -129 l-225 -122 -732 395 -733 395 -3 262
c-1 163 1 261 7 258 5 -1 439 -239 964 -528z m-1293 -492 c46 -20 87 -69 97
-116 4 -20 8 -147 8 -282 0 -235 -1 -247 -23 -287 -15 -28 -37 -50 -65 -65
-38 -21 -59 -23 -228 -26 -225 -5 -288 5 -335 52 -50 50 -56 89 -52 364 3 217
5 252 22 284 21 44 67 75 128 88 73 15 407 6 448 -12z m-1820 -683 c542 -296
991 -542 998 -547 9 -8 12 -73 12 -265 0 -238 -1 -255 -17 -250 -10 2 -466
252 -1013 554 -1063 588 -1089 604 -1132 701 -24 54 -28 158 -9 225 9 32 31
67 64 103 l49 54 32 -19 c17 -10 474 -260 1016 -556z m4249 519 c55 -62 75
-126 69 -223 -6 -91 -28 -140 -90 -197 -57 -52 15 -11 -1058 -604 -520 -287
-964 -533 -987 -546 l-43 -25 0 263 0 263 1018 557 c559 306 1024 557 1034
557 9 1 34 -20 57 -45z m-3239 -282 l0 -258 -180 -97 -181 -98 -234 128 c-129
71 -235 130 -235 133 1 7 803 448 818 449 9 1 12 -57 12 -257z m1518 52 c196
-108 377 -207 400 -221 l44 -25 -237 -129 -237 -129 -179 96 -179 96 0 260 c0
228 2 259 15 254 8 -3 176 -94 373 -202z m-2846 -770 c125 -69 228 -128 228
-129 0 -6 -363 -198 -375 -198 -14 0 -443 232 -450 243 -4 6 347 207 364 209
3 1 108 -56 233 -125z m4206 21 c100 -54 178 -102 174 -106 -4 -4 -107 -62
-229 -128 l-222 -122 -181 99 c-100 54 -182 102 -182 107 0 11 433 254 448
252 5 -1 92 -47 192 -102z m-3865 -760 l987 -539 0 -259 c0 -209 -3 -258 -13
-255 -7 2 -465 253 -1018 558 -919 508 -1009 560 -1066 616 -70 69 -86 109
-86 214 -1 89 17 135 76 197 l50 53 41 -23 c23 -12 485 -265 1029 -562z m4270
470 c18 -33 22 -56 22 -141 0 -94 -2 -104 -30 -149 -17 -27 -55 -68 -85 -92
-44 -33 -1992 -1119 -2046 -1140 -12 -4 -14 36 -14 255 l0 260 1027 561 1027
561 39 -38 c21 -20 48 -55 60 -77z m-2457 -762 c30 -16 49 -36 65 -70 23 -47
24 -56 24 -298 0 -278 -5 -305 -60 -354 -45 -39 -90 -46 -315 -46 -177 0 -187
1 -234 25 -86 43 -90 61 -94 352 -3 265 2 307 44 357 44 52 92 61 324 58 190
-2 208 -4 246 -24z"/>
</g>
</svg>
